<?xml version="1.0" encoding="UTF-8"?>
<svg xmlns="http://www.w3.org/2000/svg" viewBox="0 0 3000 2000">
  <defs>
    <style>
      .cls-1 { fill: #0074ff; }
      .cls-2 { fill: #212121; }
    </style>
  </defs>
  <g>
    <path class="cls-2" d="M1239.57,872.16c-8.61,0-15.83-2.92-21.68-8.78-5.86-5.85-8.78-12.91-8.78-21.17s2.92-15.4,8.78-21.42c5.85-6.02,13.08-9.03,21.68-9.03s15.31,3.02,21.17,9.03c5.85,6.03,8.78,13.17,8.78,21.42s-2.93,15.32-8.78,21.17-12.91,8.78-21.17,8.78ZM1216.85,1177.26v-258.12h44.91v258.12h-44.91Z"/>
    <path class="cls-2" d="M1472.91,912.42c36.14,0,66.93,13.16,92.41,39.49,25.47,26.33,38.2,58.42,38.2,96.28s-12.74,69.95-38.2,96.28c-25.47,26.33-56.27,39.49-92.41,39.49-42.68,0-75.2-17.04-97.57-51.11v147.64h-44.91v-361.37h44.91v44.4c22.37-34.07,54.89-51.11,97.57-51.11ZM1467.23,1140.6c25.81,0,47.49-8.86,65.05-26.59,17.55-17.72,26.33-39.66,26.33-65.82s-8.78-48.09-26.33-65.82c-17.55-17.72-39.23-26.59-65.05-26.59s-48.01,8.86-65.56,26.59c-17.55,17.73-26.33,39.67-26.33,65.82s8.78,48.1,26.33,65.82c17.55,17.73,39.4,26.59,65.56,26.59Z"/>
    <path class="cls-2" d="M1785.75,912.42c30.28,0,54.54,9.55,72.79,28.65,18.24,19.1,27.36,45,27.36,77.69v158.49h-44.91v-155.91c0-20.99-5.68-37.25-17.04-48.79-11.36-11.53-27.02-17.29-46.98-17.29-22.38,0-40.44,6.97-54.21,20.91-13.77,13.94-20.65,35.36-20.65,64.27v136.8h-44.91v-361.37h44.91v140.42c18.24-29.25,46.11-43.88,83.63-43.88Z"/>
    <path class="cls-2" d="M1979.86,1068.84c4.47,23.06,15.05,40.96,31.75,53.69,16.69,12.74,37.25,19.1,61.69,19.1,34.07,0,58.85-12.56,74.34-37.69l38.2,21.68c-25.13,38.9-62.98,58.33-113.57,58.33-40.96,0-74.26-12.82-99.89-38.46-25.64-25.63-38.46-58.08-38.46-97.31s12.56-71.24,37.69-97.05c25.12-25.81,57.64-38.72,97.57-38.72,37.85,0,68.74,13.34,92.67,40.01,23.92,26.67,35.88,58.77,35.88,96.28,0,6.54-.52,13.25-1.55,20.13h-216.31ZM2069.17,954.75c-24.09,0-44.06,6.8-59.88,20.39-15.83,13.6-25.64,31.75-29.43,54.46h172.43c-3.79-24.43-13.42-43.02-28.91-55.75-15.49-12.73-33.56-19.1-54.21-19.1Z"/>
    <path class="cls-2" d="M2294.25,962.5c14.79-32.01,41.64-48.01,80.53-48.01v46.98c-22.03-1.03-40.96,4.82-56.79,17.55-15.83,12.74-23.75,33.22-23.75,61.43v136.8h-44.91v-258.12h44.91v43.36Z"/>
  </g>
  <g>
    <path class="cls-1" d="M1671.76,1303.29c-6.72,3.82-14.31,5.74-22.77,5.74-9.73,0-17.58-3.08-23.53-9.23-5.95-6.16-8.93-14.38-8.93-24.66s3.29-18.95,9.86-25.64,15.01-10.04,25.29-10.04c7.27,0,13.43,1.16,18.47,3.48v9.39c-5.39-3.39-11.81-5.08-19.25-5.08s-13.37,2.51-18.12,7.52c-4.75,5.01-7.13,11.62-7.13,19.82s2.19,14.99,6.56,19.69c4.37,4.69,10.28,7.04,17.73,7.04,5.13,0,9.49-.98,13.08-2.96v-18.21h-14.6v-7.69h23.34v30.85Z"/>
    <path class="cls-1" d="M1712,1307.9v-71.14h8.52v71.14h-8.52Z"/>
    <path class="cls-1" d="M1758.59,1284.39c0-7.94,2.22-14.2,6.65-18.8,4.43-4.59,10.44-6.89,18.03-6.89s12.87,2.21,16.97,6.63c4.1,4.42,6.15,10.52,6.15,18.32s-2.19,13.72-6.56,18.38c-4.38,4.67-10.24,7-17.6,7s-12.92-2.26-17.21-6.78c-4.29-4.52-6.43-10.47-6.43-17.86ZM1767.28,1284.13c0,5.53,1.4,9.89,4.19,13.08,2.79,3.19,6.55,4.78,11.28,4.78s8.58-1.56,11.12-4.67c2.55-3.11,3.82-7.58,3.82-13.41s-1.28-10.34-3.82-13.47c-2.55-3.13-6.26-4.69-11.12-4.69s-8.55,1.64-11.32,4.91c-2.77,3.27-4.15,7.76-4.15,13.47Z"/>
    <path class="cls-1" d="M1852.98,1301.12v6.78h-8.52v-71.14h8.52v31.38h.17c3.77-6.29,9.27-9.43,16.51-9.43,6.03,0,10.81,2.12,14.36,6.37,3.55,4.25,5.32,10.05,5.32,17.41,0,8.11-1.99,14.57-5.97,19.36-3.98,4.8-9.29,7.19-15.93,7.19-6.26,0-11.02-2.64-14.3-7.91h-.17ZM1852.94,1288.12c0,3.88,1.26,7.16,3.78,9.84s5.68,4.02,9.47,4.02c4.52,0,8.05-1.74,10.6-5.21,2.55-3.48,3.82-8.29,3.82-14.43,0-5.07-1.19-9.1-3.56-12.1-2.38-3-5.62-4.5-9.73-4.5s-7.61,1.49-10.32,4.48c-2.71,2.98-4.06,6.78-4.06,11.39v6.52Z"/>
    <path class="cls-1" d="M1927.25,1263.18c4.78-2.98,10.3-4.48,16.56-4.48,11.59,0,17.38,6.08,17.38,18.25v30.94h-8.43v-7.43h-.22c-3.33,5.71-8.24,8.56-14.73,8.56-4.67,0-8.37-1.26-11.12-3.78-2.75-2.52-4.13-5.92-4.13-10.21,0-8.98,5.32-14.21,15.95-15.69l14.25-2c0-7.85-3.25-11.78-9.73-11.78-5.77,0-11.02,1.94-15.77,5.82v-8.21ZM1941.51,1285.3c-3.94.52-6.66,1.51-8.15,2.96-1.49,1.45-2.24,3.48-2.24,6.08,0,2.29.81,4.16,2.43,5.61,1.62,1.45,3.77,2.17,6.43,2.17,3.71,0,6.76-1.3,9.17-3.91,2.4-2.61,3.61-5.88,3.61-9.82v-4.61l-11.25,1.52Z"/>
    <path class="cls-1" d="M2001.35,1307.9v-71.14h8.52v71.14h-8.52Z"/>
    <path class="cls-1" d="M2140.16,1307.9h-35.5v-67.31h8.69v59.62h26.81v7.69Z"/>
    <path class="cls-1" d="M2211.91,1307.9h-35.5v-67.31h8.69v59.62h26.81v7.69Z"/>
    <path class="cls-1" d="M2291.13,1305.12c-4.95,2.61-11.17,3.91-18.64,3.91-9.65,0-17.36-3.06-23.12-9.19-5.77-6.13-8.65-14.23-8.65-24.31,0-10.83,3.24-19.56,9.73-26.16,6.49-6.61,14.73-9.91,24.73-9.91,6.43,0,11.75.91,15.95,2.74v9.08c-4.81-2.67-10.1-4-15.86-4-7.5,0-13.62,2.5-18.34,7.5-4.72,5-7.08,11.74-7.08,20.23s2.2,14.45,6.61,19.19c4.4,4.74,10.17,7.11,17.3,7.11,6.66,0,12.46-1.51,17.38-4.52v8.34Z"/>
  </g>
  <path class="cls-1" d="M1062.51,1138.47c0,10.07-3.49,19.95-9.83,27.79-14.77,18.29-33.17,33.83-54.7,46.2-30.89,17.74-65.07,26.73-101.59,26.73-60.16,0-110.66-20.29-150.11-60.32-39.37-39.93-59.33-89.59-59.33-147.58s19.96-107.64,59.33-147.58c39.44-40.02,89.95-60.31,150.11-60.31,36.48,0,70.56,8.89,101.28,26.44,21.46,12.26,39.91,27.77,54.85,46.1,8.21,10.07,11.58,23.18,9.25,35.96-2.33,12.77-10.11,23.83-21.34,30.35-6.74,3.91-14.42,5.98-22.21,5.98-13.83,0-26.61-6.27-35.05-17.2-7.61-9.85-17.44-18.31-29.18-25.13-17.45-10.12-36.29-15.04-57.6-15.04-36.24,0-64.81,11.16-87.33,34.12-22.62,23.08-33.62,51.31-33.62,86.31s11,62.72,33.63,85.8c22.51,22.96,51.08,34.12,87.32,34.12,21.3,0,40.14-4.92,57.61-15.05,11.8-6.84,21.67-15.28,29.32-25.06,13.39-17.15,37.79-21.97,56.75-11.21,13.84,7.86,22.44,22.64,22.44,38.58Z"/>
  <path class="cls-2" d="M1037.35,833.54c.18-.4.61-.76,1.36-1.06,5.09-2.09,17.35,1.27,22.61,2.59,16.62,4.15,44.79,14.16,61.29,26.41,25.05,18.6,45.2,43.44,53.2,73.63,8.43,31.82,3.75,66.29-9.52,96.41-13.27,30.12-34.71,56.13-59.35,77.95-77.69,68.82-173.19,96.19-276.83,101.75-48.38,2.6-113.66-6.99-148.77-33.8,117.72,38.53,244.12,9.74,350.99-47.6,32.85-17.62,64.76-38.54,88.18-67.54,23.42-29,43.84-72.86,37.26-109.55-5.21-29.07-21.74-53.82-42.62-74.7-30.1-30.1-79.06-41.71-77.8-44.49Z"/>
  <path class="cls-2" d="M684.02,916.78c-2.09,4.55-4.23,9.08-6.27,13.65-.97,2.17-2.67,3.69-4.25,5.34-9.02,9.38-17.95,18.84-26.07,29.03-9.67,12.13-18.19,25.02-24.79,39.04-6.36,13.49-11.01,27.64-12.81,42.52-1.86,15.38,4.29,27.78,15.8,37.46,10.28,8.64,21.86,14.81,35.2,17.94,15.12,3.55,30.44,4.86,45.81,6.3,9.61.9,19.14-.34,28.71-.33,7.59,0,15.15-.56,22.7-1.14.91-.07,1.63-.11,2.25.71,2.31,3.05,5.01,5.8,7.11,9.43-4.53,1.59-9.07,2.06-13.42,3.23-12.62,3.38-25.59,4.45-38.53,5.65-1.14.11-2.29.06-3.44.06-13.43-.05-26.87-.07-40.28-.9-17.16-1.06-33.64-4.94-48.75-13.44-7.89-4.44-15.26-9.71-21.07-16.75-7.88-9.54-11.97-20.61-12.85-32.99-1.56-22.06,4.59-42.01,15.41-60.98,10.36-18.17,23.19-34.42,37.96-49.04,11.87-11.76,23.99-23.37,37.7-33.08,1.12-.79,2.27-1.55,3.41-2.33.16.2.31.4.47.61Z"/>
</svg>

